<svg width="120" height="29" viewBox="0 0 120 29" fill="none" xmlns="http://www.w3.org/2000/svg">
<path d="M17.0933 24.0669C18.4523 25.2154 18.2174 27.8047 18.2174 27.8047C18.2174 27.8047 15.7813 28.5268 14.4224 27.3783C13.0634 26.2298 13.2983 23.6406 13.2983 23.6406C13.2983 23.6406 15.7344 22.9185 17.0933 24.0669Z" fill="#F14C44"/>
<path d="M13.9259 0.0487572C15.3754 0.371982 16.2713 2.30446 16.4659 2.76523C16.929 2.79273 18.8987 2.98185 19.7141 4.33665C20.5294 5.69144 19.9187 7.75115 19.761 8.22567C20.0697 8.60391 21.3415 10.2647 21.0428 11.8534C20.7207 13.5795 18.6671 14.5905 18.4927 14.6764C18.4457 15.2197 18.184 17.3207 16.9357 18.1562C15.4962 19.119 13.295 18.029 13.295 18.029C13.295 18.029 13.4259 15.3813 14.862 14.4185C16.0264 13.638 17.6941 14.2053 18.2846 14.4495C17.8551 13.889 16.8585 12.407 17.1236 10.9765C17.382 9.58046 18.7712 8.65549 19.3919 8.30475C18.6973 8.23254 17.0934 7.94027 16.3787 6.75396C15.664 5.56766 16.0465 3.83462 16.2579 3.10908C15.721 3.59736 14.399 4.63237 13.1273 4.34697C11.4797 3.97904 10.5435 1.53078 10.5435 1.53078C10.5435 1.53078 12.2783 -0.319169 13.9259 0.0521965V0.0487572Z" fill="#F14C44"/>
<path d="M1.32597 8.2254C1.16826 7.75088 0.557567 5.68774 1.37295 4.33638C2.18833 2.98503 4.15799 2.79247 4.62105 2.76496C4.81566 2.30419 5.71493 0.375156 7.16114 0.0484918C8.80868 -0.319435 10.5435 1.52708 10.5435 1.52708C10.5435 1.52708 9.60729 3.9719 7.95975 4.34326C6.68802 4.62866 5.36596 3.59021 4.82908 3.10538C5.04048 3.83435 5.42636 5.56395 4.70829 6.75026C3.99022 7.93656 2.38966 8.22884 1.69508 8.30105C2.31584 8.65178 3.70164 9.57676 3.96336 10.9728C4.22845 12.3998 3.23188 13.8853 2.80238 14.4458C3.39295 14.2016 5.06062 13.6343 6.22497 14.4148C7.66447 15.3776 7.79197 18.0253 7.79197 18.0253C7.79197 18.0253 5.59077 19.1153 4.15127 18.1525C2.90303 17.317 2.64132 15.216 2.59435 14.6727C2.4165 14.5902 0.366298 13.5793 0.0441713 11.8497C-0.25111 10.261 1.01726 8.60021 1.32597 8.22196V8.2254Z" fill="#F14C44"/>
<path d="M7.58073 23.403C7.58073 23.403 8.05386 25.9579 6.80562 27.2336C5.56074 28.5093 3.06762 28.0279 3.06762 28.0279C3.06762 28.0279 2.59449 25.473 3.84273 24.1973C5.08761 22.9216 7.58073 23.403 7.58073 23.403Z" fill="#F14C44"/>
<path d="M8.64435 20.0678C8.7383 19.9715 8.86917 19.9165 9.00339 19.9165H9.39597V19.5142C9.39597 19.3766 9.44966 19.2425 9.54361 19.1463L10.5402 18.125L11.5368 19.1463C11.6307 19.2425 11.6844 19.3766 11.6844 19.5142V19.9165H12.077C12.2112 19.9165 12.3421 19.9715 12.436 20.0678L13.4326 21.089L12.436 22.1103C12.3421 22.2066 12.2112 22.2616 12.077 22.2616H11.6844V22.6639C11.6844 22.8014 11.6307 22.9355 11.5368 23.0318L10.5402 24.0531L9.54361 23.0318C9.44966 22.9355 9.39597 22.8014 9.39597 22.6639V22.2616H9.00339C8.86917 22.2616 8.7383 22.2066 8.64435 22.1103L7.64778 21.089L8.64435 20.0678Z" fill="#345073"/>
<path d="M40.9161 21.5926C42.3748 21.3853 42.5854 20.8477 42.5854 18.9583V7.58398C40.2842 6.77756 38.5758 6.37818 37.1249 6.37818H37.0001V18.9583C37.0001 20.8477 37.2341 21.3853 38.8567 21.5926V21.7386H32.7877V21.5926C34.4103 21.3853 34.6443 20.8477 34.6443 18.9583V6.37818H34.5195C33.1076 6.37818 31.6956 7.08476 29.1213 8.14463V6.0249H45.1909L45.2299 6.17083C44.8711 6.41659 44.7228 6.839 44.7228 8.92801V14.0737C45.3547 12.4993 46.7042 11.2321 48.709 11.2321C50.7138 11.2321 51.9151 12.2919 51.9151 14.8878V18.9583C51.9151 20.8477 52.1023 21.3853 53.3739 21.5926V21.7386H48.358V21.5926C49.5983 21.3853 49.7699 20.8477 49.7699 18.9583V14.8494C49.7699 12.9371 49.0757 12.1537 47.7261 12.1537C46.205 12.1537 45.1753 13.3364 44.7306 14.8341V18.966C44.7306 20.8553 44.9179 21.393 46.3142 21.6003V21.7462H40.9395V21.6003L40.9161 21.5926ZM55.012 19.3961C55.012 17.5298 56.5332 16.8232 59.0372 16.1551C61.0186 15.5944 62.0327 15.3026 62.0483 13.682C62.0873 12.4379 61.3931 11.6084 60.0669 11.6084C58.9046 11.6084 57.4068 12.3995 57.4068 14.8648H55.4645C55.5659 12.2458 58.2259 11.2321 60.3321 11.2321C62.4383 11.2321 64.1467 12.123 64.1467 14.6958V19.6342C64.1467 20.5865 64.4431 21.0704 65.0126 21.0704C65.4104 21.0704 65.621 20.9475 65.9019 20.7171L65.9252 20.9859C65.3324 21.608 64.7629 21.9382 63.9439 21.9382C62.8284 21.9382 62.0249 21.1933 62.0249 19.4883V18.39C61.5412 20.4483 60.1683 21.9997 57.9373 21.9997C56.2523 21.9997 55.0042 21.1088 55.0042 19.3807L55.012 19.3961ZM58.85 20.8246C60.808 20.8246 62.0327 19.0582 62.0327 16.3855V15.0798C61.7831 15.725 60.9562 16.0168 59.6301 16.4316C58.0465 16.9308 57.0792 17.4914 57.0792 18.966C57.0792 20.2332 57.8593 20.8323 58.85 20.8323V20.8246ZM67.2826 21.5926C68.6555 21.3853 68.8428 20.8477 68.8428 18.9583L68.8661 14.3118C68.8661 12.2766 68.6945 11.9079 67.3294 11.8004V11.6545L69.5448 11.4702L71.0035 11.3626V18.9583C71.0035 20.8477 71.1908 21.3853 72.5637 21.5926V21.7386H67.2904V21.5926H67.2826ZM74.3969 21.5926C76.0194 21.3853 76.2535 20.8477 76.2535 18.9583V8.80513C76.2535 6.76988 76.0194 6.37819 74.3969 6.17083V6.0249H80.6765C84.257 6.0249 87.1511 6.83132 87.1511 9.88803C87.1511 12.9447 83.7344 13.8971 80.0914 13.8971H78.6171V18.9583C78.6171 20.8477 78.8667 21.3853 80.6609 21.5926V21.7386H74.3969V21.5926ZM79.834 13.5208C82.3458 13.5208 84.6861 12.6299 84.6861 9.88803C84.6861 7.14621 82.6812 6.40122 80.3644 6.40122H78.6171V13.5208H79.8418H79.834ZM87.9468 19.3961C87.9468 17.5298 89.4679 16.8232 91.9719 16.1551C93.9533 15.5944 94.9674 15.3026 94.983 13.682C95.022 12.4379 94.3278 11.6084 93.0016 11.6084C91.8393 11.6084 90.3416 12.3995 90.3416 14.8648H88.3992C88.5006 12.2458 91.1607 11.2321 93.2669 11.2321C95.3731 11.2321 97.0814 12.123 97.0814 14.6958V19.6342C97.0814 20.5865 97.3779 21.0704 97.9473 21.0704C98.3452 21.0704 98.5558 20.9475 98.8366 20.7171L98.86 20.9859C98.2672 21.608 97.6977 21.9382 96.8786 21.9382C95.7631 21.9382 94.9596 21.1933 94.9596 19.4883V18.39C94.476 20.4483 93.1031 21.9997 90.8721 21.9997C89.1871 21.9997 87.939 21.1088 87.939 19.3807L87.9468 19.3961ZM91.7847 20.8246C93.7427 20.8246 94.9674 19.0582 94.9674 16.3855V15.0798C94.7178 15.725 93.8909 16.0168 92.5648 16.4316C90.9813 16.9308 90.0139 17.4914 90.0139 18.966C90.0139 20.2332 90.794 20.8323 91.7847 20.8323V20.8246ZM100.155 18.3516H102.035C102.183 20.3638 103.174 21.7386 104.984 21.7386C106.396 21.7386 107.215 20.9705 107.215 19.9337C107.215 18.7279 106.138 18.2518 104.094 17.3378C102.285 16.5468 100.701 15.8018 100.701 13.9969C100.701 12.1921 102.285 11.2397 104.516 11.2397C106.747 11.2397 108.455 12.3611 108.876 14.3502H106.996C106.809 12.7297 106.029 11.593 104.422 11.593C103.197 11.593 102.441 12.2382 102.441 13.1675C102.441 14.3502 103.556 14.9339 105.35 15.7019C107.293 16.5314 109.001 17.3455 109.001 19.1887C109.001 21.032 107.254 22.0918 104.952 22.0918C102.23 22.0918 100.444 20.5789 100.147 18.3516H100.155ZM111.154 18.3516H113.034C113.182 20.3638 114.173 21.7386 115.983 21.7386C117.395 21.7386 118.214 20.9705 118.214 19.9337C118.214 18.7279 117.137 18.2518 115.093 17.3378C113.284 16.5468 111.7 15.8018 111.7 13.9969C111.7 12.1921 113.284 11.2397 115.515 11.2397C117.746 11.2397 119.454 12.3611 119.875 14.3502H117.995C117.808 12.7297 117.028 11.593 115.421 11.593C114.196 11.593 113.44 12.2382 113.44 13.1675C113.44 14.3502 114.555 14.9339 116.349 15.7019C118.292 16.5314 120 17.3455 120 19.1887C120 21.032 118.253 22.0918 115.951 22.0918C113.229 22.0918 111.443 20.5789 111.146 18.3516H111.154Z" fill="#F14C44"/>
<path d="M70.2943 7.00029C70.3723 7.00029 70.4426 7.03101 70.4972 7.08477L71.0588 7.63773L70.4972 8.19071C70.4426 8.24447 70.3723 8.27519 70.2943 8.27519H70.0681V8.49792C70.0681 8.57472 70.0369 8.64384 69.9823 8.6976L69.4207 9.25058L68.859 8.6976C68.8044 8.64384 68.7732 8.57472 68.7732 8.49792V8.27519H68.547C68.469 8.27519 68.3988 8.24447 68.3441 8.19071L67.7825 7.63773L68.3441 7.08477C68.3988 7.03101 68.469 7.00029 68.547 7.00029H68.7732V6.77756C68.7732 6.70076 68.8044 6.63164 68.859 6.57788L69.4207 6.0249L69.9823 6.57788C70.0369 6.63164 70.0681 6.70076 70.0681 6.77756V7.00029H70.2943Z" fill="#F14C44"/>
</svg>
